<svg height="512" viewBox="0 0 256 256" width="512" xmlns="http://www.w3.org/2000/svg"><g id="Layer_61"><g><g><g><path d="m253.405 37.712c-.685.093-1.372.254-2.051.516-.774.299-1.62-.187-1.764-1.004-1.379-7.824-11.831-10.277-16.549-3.956-.533.714-1.584.713-2.12.001-4.634-6.155-14.778-3.965-16.444 3.569-.191.864-1.116 1.303-1.91.911-5.275-2.612-11.841.424-13.166 6.23-.195.855-1.112 1.293-1.898.904-3.925-1.942-8.752-.864-11.464 2.638-.486.627-1.414.671-1.967.103-1.717-1.76-3.981-2.677-6.274-2.771 1.161 4.294 2.052 8.22 2.655 11.088.481 2.291-.121 4.611-1.528 6.368.016.15.026.313.041.465h.007c.841 8.573-.479 12.478-.584 12.722.193.204.372.422.551.638l.005-.009c1.739 2.103 2.849 4.958 2.849 7.873 0 4.526-2.463 8.495-6.107 10.665 4.825 3.356 12.244 1.394 14.184-4.77.213-.676.889-1.065 1.581-.912 2.81.619 5.683-.104 7.857-1.882.55-.45 1.387-.352 1.82.212 2.79 3.639 7.895 4.735 11.94 2.454.642-.362 1.435-.168 1.823.459 4.76 7.689 16.906 4.238 17.162-4.592.025-.847.826-1.444 1.645-1.229 1.41.37 2.892.403 4.35.075.683-.154 1.355.232 1.567.899 1.893 5.955 8.982 8.079 13.86 4.956z" fill="#b2e26d"/></g></g><g><g><path d="m253.474 90.335c-3.537 2.264-8.224 1.766-11.264-.953l.027 20.705c.008 6.465-5.244 11.732-11.71 11.74l-14.743.02-.04-30.457c-.304-.357-.592-.741-.854-1.165-.388-.627-1.181-.822-1.823-.459-4.045 2.281-9.15 1.185-11.94-2.454-.28-.365-.727-.511-1.157-.464l.023 17.829-11.623.015c-6.483.009-12.124-3.616-15.025-8.944-1.248.425-2.58.666-3.967.666-.322 0-3.471 0-3.37 0-.036 1.479.154 4.187-.441 8.051 5.179 6.977 13.481 11.503 22.818 11.49l11.623-.015.029 50.457c.904 1.768 1.462 3.734 1.577 5.807l1.21 33.248c.305-.277.576-.603.781-.994 2.472-4.717 7.262-7.451 12.227-7.726l-.033-63.622 14.743-.02c12.675-.017 22.974-10.342 22.958-23.018z" fill="#a0795f"/></g></g><g><g><path d="m74.207 84c0-3.053 1.206-5.995 3.068-8.131l.007.012c.112-.128.217-.263.334-.386-.39-1.183-.654-2.432-.743-3.744-.201-2.972-.12-6.225.167-9.086h.006c.012-.115.019-.24.031-.354-1.407-1.757-2.009-4.077-1.528-6.368.602-2.869 1.493-6.794 2.655-11.088-2.293.093-4.557 1.01-6.274 2.771-.554.568-1.482.523-1.967-.103-2.712-3.502-7.539-4.581-11.464-2.638-.786.389-1.703-.049-1.898-.904-1.325-5.807-7.892-8.842-13.166-6.23-.793.393-1.718-.047-1.91-.911-1.666-7.534-11.81-9.724-16.444-3.569-.536.712-1.586.713-2.12-.001-4.721-6.323-15.173-3.87-16.552 3.954-.144.817-.989 1.303-1.764 1.004-.679-.262-1.366-.423-2.051-.516l-.068 52.623c4.878 3.123 11.967.999 13.86-4.956.212-.667.884-1.053 1.567-.899 1.458.328 2.94.295 4.35-.075.819-.215 1.621.383 1.645 1.229.256 8.829 12.403 12.281 17.162 4.592.388-.627 1.18-.822 1.823-.459 4.045 2.28 9.15 1.185 11.94-2.454.433-.564 1.27-.662 1.82-.212 2.175 1.778 5.048 2.501 7.857 1.882.692-.153 1.368.236 1.581.912 1.939 6.164 9.359 8.126 14.184 4.77-3.645-2.17-6.108-6.139-6.108-10.665z" fill="#b2e26d"/></g></g><g><g><path d="m89.991 98.69v-2.276h-3.371c-1.388 0-2.719-.241-3.967-.666-2.901 5.328-8.542 8.953-15.025 8.944l-11.623-.015.023-17.829c-.431-.047-.878.099-1.157.464-2.79 3.639-7.895 4.735-11.94 2.454-.642-.362-1.435-.167-1.823.459-.262.424-.55.808-.854 1.165l-.04 30.457-14.743-.02c-6.465-.009-11.718-5.275-11.71-11.74l.027-20.705c-3.04 2.719-7.727 3.217-11.264.953l-.024 19.738c-.017 12.676 10.282 23.001 22.958 23.018l14.743.02-.036 67.761c4.892-.231 9.771 2.019 12.699 6.167h.253l1.268-34.834c.116-2.073.673-4.04 1.577-5.807l.029-50.458 11.623.015c9.337.012 17.64-4.513 22.818-11.49-.29-1.884-.441-3.813-.441-5.775z" fill="#a0795f"/></g></g><g><g><path d="m51.582 249.231 1.03-28.294.036-.976h-1.056c-1.431 0-2.591-1.16-2.591-2.591v-7.741c0-1.431 1.16-2.591 2.591-2.591h1.273c-4.246-6.014-12.594-8.044-19.136-4.292-1.729.991-3.869.351-4.893-1.359-2.519-4.205-7.081-7.068-12.316-7.154-6.412-.105-11.952 3.985-14.019 9.719v44.142c0 2.986 2.42 5.406 5.406 5.406h47.713c-2.322 0-4.167-1.951-4.038-4.269z" fill="#57af12"/></g></g><g><g><path d="m230.685 198.949c-1.242 1.709-3.572 2.034-5.239.735-7.083-5.517-17.705-3.118-21.841 4.774-.205.391-.476.717-.781.994l.058 1.586h1.526c1.431 0 2.591 1.16 2.591 2.591v7.741c0 1.431-1.16 2.591-2.591 2.591h-1.056l.023.623 1.042 28.647c.129 2.318-1.716 4.269-4.037 4.269h47.713c2.985 0 5.406-2.42 5.406-5.406v-49.904c-5.786-6.482-17.194-6.977-22.814.759z" fill="#57af12"/></g></g><g><g><path d="m51.582 249.231.83-22.808c-1.842.32-3.656.941-5.361 1.906-2.015 1.141-4.54.515-5.711-1.483-4.637-7.911-15.015-10.781-23.044-6.177-2.012 1.154-4.502.408-5.694-1.581-2.227-3.718-5.829-6.53-10.103-7.713v36.718c0 2.986 2.42 5.406 5.406 5.406h47.713c-2.32.001-4.165-1.95-4.036-4.268z" fill="#b2e26d"/></g></g><g><g><path d="m247.494 216.252c-1.445 1.989-4.157 2.366-6.096.855-8.243-6.419-20.603-3.628-25.416 5.555-1.084 2.069-3.578 2.826-5.666 1.78-2.19-1.098-4.53-1.658-6.864-1.747l.966 26.536c.129 2.318-1.716 4.269-4.037 4.269h47.713c2.985 0 5.406-2.42 5.406-5.406v-36.854c-2.287 1.095-4.361 2.748-6.006 5.012z" fill="#b2e26d"/></g></g><g><g><path d="m75.876 6.21c-3.157-.561-5.613-3.017-6.245-6.104 0-.14-.281-.14-.281 0-.632 3.087-3.087 5.543-6.245 6.104-.14 0-.14.21 0 .281 3.157.562 5.613 3.017 6.245 6.104 0 .14.281.14.281 0 .631-3.087 3.087-5.543 6.245-6.104.14-.071.14-.281 0-.281z" fill="#87d147"/></g></g><g><g><path d="m240.867 152.189h-2.3v-2.3c0-1.7-1.4-3.2-3.2-3.2s-3.2 1.4-3.2 3.2v2.3h-2.3c-1.7 0-3.2 1.4-3.2 3.2s1.4 3.2 3.2 3.2h2.3v2.3c0 1.7 1.4 3.2 3.2 3.2s3.2-1.4 3.2-3.2v-2.3h2.3c1.7 0 3.2-1.4 3.2-3.2s-1.4-3.2-3.2-3.2z" fill="#70d6f9"/></g></g><g><g><path d="m21.267 147.531c-1.878 0-3.4 1.522-3.4 3.4s1.522 3.4 3.4 3.4 3.4-1.522 3.4-3.4-1.522-3.4-3.4-3.4z" fill="#fc657e"/></g></g><g><g><path d="m244.267 175c-1.878 0-3.4 1.522-3.4 3.4s1.522 3.4 3.4 3.4 3.4-1.522 3.4-3.4-1.522-3.4-3.4-3.4z" fill="#f5c84c"/></g></g><g><g><path d="m21.884 175.181c-4.5-.8-8-4.3-8.9-8.7 0-.2-.4-.2-.4 0-.9 4.4-4.4 7.9-8.9 8.7-.2 0-.2.3 0 .4 4.5.8 8 4.3 8.9 8.7 0 .2.4.2.4 0 .9-4.4 4.4-7.9 8.9-8.7.2-.1.2-.4 0-.4z" fill="#f5c84c"/></g></g><g><g><g><path d="m180.452 55.943c-1.834-8.736-6.33-27.254-13.069-36.239-11.837-15.783-66.889-15.836-78.766 0-6.739 8.986-11.236 27.503-13.069 36.239-.661 3.152.706 6.373 3.435 8.082 3.511 2.198 8.952 4.679 15.634 4.679h66.766c6.682 0 12.123-2.48 15.634-4.679 2.729-1.709 4.097-4.93 3.435-8.082z" fill="#818182"/></g></g><g><g><path d="m178.924 62.311c-.529.66-1.162 1.248-1.907 1.714-3.511 2.198-8.952 4.679-15.634 4.679-13.403 0-53.363 0-66.766 0-6.682 0-12.123-2.48-15.634-4.679-.746-.467-1.379-1.054-1.907-1.714-.298 2.806-.435 6.014-.203 9.439.65 9.606 9.962 16.158 19.231 13.558 20.456-5.74 42.504-5.973 63.792 0 9.27 2.601 18.581-3.952 19.231-13.558.232-3.425.095-6.633-.203-9.439z" fill="#96bc71"/></g></g><g><g><path d="m167.409 19.738c-.008-.011-.017-.023-.026-.034-11.837-15.783-66.889-15.836-78.766 0-.008.011-.017.023-.025.034-1.612 2.157-2.416 4.812-2.416 7.505v40.127c2.501.795 5.334 1.334 8.441 1.334h66.767c3.106 0 5.94-.54 8.441-1.334v-40.127c-.001-2.693-.805-5.348-2.416-7.505z" fill="#b8dd90"/></g></g><g><g><path d="m159.896 85.308c-21.287-5.973-43.335-5.74-63.792 0-2.07.581-4.136.683-6.113.418v12.964c0 20.905 17.104 38.009 38.009 38.009 20.905 0 38.009-17.104 38.009-38.009v-12.963c-1.977.264-4.043.162-6.113-.419z" fill="#f9d0b4"/></g></g><g><g><path d="m178.385 75.495c-1.827 5.542-6.708 9.475-12.376 10.232v10.687h3.37c6.828 0 12.414-5.586 12.414-12.414 0-3.287-1.303-6.279-3.408-8.505z" fill="#f9d0b4"/></g></g><g><g><path d="m77.615 75.495c-2.105 2.227-3.409 5.218-3.409 8.505 0 6.828 5.586 12.414 12.414 12.414h3.371v-10.687c-5.667-.757-10.548-4.691-12.376-10.232z" fill="#f9d0b4"/></g></g><g><g><path d="m128.271 6.704c-1.381 0-2.5 1.119-2.5 2.5v16c0 1.381 1.119 2.5 2.5 2.5s2.5-1.119 2.5-2.5v-16c0-1.381-1.12-2.5-2.5-2.5z"/></g></g><g><g><path d="m203.353 219.961h-24.353v-12.923h23.883l-1.268-34.834c-.354-6.356-4.8-11.742-10.972-13.296l-7.05-1.78c-.661-.167-17.448-4.404-18.313-4.623-1.885-.474-3.715-1.135-5.477-1.952-.047.532-.264 1.052-.671 1.459l-17.167 17.167c-.922.922-2.417.922-3.339 0l-6.758-6.758c-.922-.922-.922-2.417 0-3.339l15.486-15.486c-1.563-1.771-2.482-4.07-2.482-6.518v-4.366c-5.092 2.544-10.821 3.985-16.872 3.985-6.052 0-11.78-1.441-16.872-3.985v4.366c0 2.448-.918 4.746-2.482 6.518l15.486 15.486c.922.922.922 2.417 0 3.339l-6.758 6.758c-.922.922-2.417.922-3.339 0l-17.168-17.167c-.407-.407-.624-.927-.671-1.459-1.762.818-3.592 1.478-5.477 1.952-.125.032-18.197 4.594-18.313 4.623l-7.05 1.78c-6.173 1.554-10.618 6.94-10.972 13.296l-1.268 34.834h23.884v12.923h-24.353l-1.065 29.27c-.129 2.318 1.716 4.269 4.037 4.269h144.762c2.321 0 4.166-1.951 4.037-4.269z" fill="#96bc71"/></g></g><g><g><path d="m124.132 159.084-17.168-17.167c-.922-.922-2.417-.922-3.339 0l-6.758 6.758c-.922.922-.922 2.417 0 3.339l17.168 17.167c.922.922 2.417.922 3.339 0l6.758-6.758c.922-.923.922-2.417 0-3.339z" fill="#b8dd90"/></g></g><g><g><path d="m159.132 148.674-6.758-6.758c-.922-.922-2.417-.922-3.339 0l-17.168 17.167c-.922.922-.922 2.417 0 3.339l6.758 6.758c.922.922 2.417.922 3.339 0l17.168-17.167c.922-.923.922-2.417 0-3.339z" fill="#b8dd90"/></g></g><g><g><path d="m204.409 207.039h-25.409v12.923h25.409c1.431 0 2.591-1.16 2.591-2.591v-7.741c0-1.432-1.16-2.591-2.591-2.591z" fill="#b8dd90"/></g></g><g><g><path d="m203.353 219.961h-24.353v33.539h21.381c2.321 0 4.166-1.951 4.037-4.269z" fill="#f9d0b4"/></g></g><g><g><path d="m51.591 207.039c-1.431 0-2.591 1.16-2.591 2.591v7.741c0 1.431 1.16 2.591 2.591 2.591h25.409v-12.923z" fill="#b8dd90"/></g></g><g><g><path d="m52.647 219.961-1.065 29.27c-.129 2.318 1.716 4.269 4.037 4.269h21.381v-33.539z" fill="#f9d0b4"/></g></g><g><g><path d="m144.872 137.08v-4.366c-5.092 2.544-10.821 3.985-16.872 3.985-6.052 0-11.78-1.441-16.872-3.985v4.366c0 2.448-.921 4.743-2.487 6.512l15.491 15.491c.396.396.612.899.667 1.416h6.402c.056-.517.271-1.02.667-1.416l15.486-15.486c-1.563-1.77-2.482-4.069-2.482-6.517z" fill="#f9d0b4"/></g></g><g><g><path d="m110.042 195.75h-20.084c-1.357 0-2.458 1.1-2.458 2.458v14.084c0 1.357 1.1 2.458 2.458 2.458h20.084c1.357 0 2.458-1.1 2.458-2.458v-14.084c0-1.358-1.1-2.458-2.458-2.458z" fill="#dae6f1"/></g></g><g><g><circle cx="100" cy="180.5" fill="#f5c84c" r="5"/></g></g><g><g><path d="m140.457 106.813c-1.059-.888-2.635-.748-3.522.311-1.847 2.203-4.98 3.519-8.382 3.519s-6.536-1.315-8.382-3.519c-.885-1.058-2.463-1.197-3.521-.311-1.059.887-1.198 2.463-.311 3.521 2.785 3.323 7.351 5.308 12.214 5.308s9.429-1.984 12.214-5.308c.886-1.058.748-2.635-.31-3.521z"/></g></g><g><g><ellipse cx="145.7" cy="88.346" rx="5.107" ry="5.107" transform="matrix(.383 -.924 .924 .383 8.323 189.147)"/></g></g><g><g><ellipse cx="111.405" cy="88.346" rx="5.107" ry="5.107" transform="matrix(.383 -.924 .924 .383 -12.849 157.462)"/></g></g><g><g><path d="m179 182c-1.381 0-2.5 1.119-2.5 2.5v68c0 1.381 1.119 2.5 2.5 2.5s2.5-1.119 2.5-2.5v-68c0-1.381-1.119-2.5-2.5-2.5z"/></g></g><g><g><path d="m77 182c-1.381 0-2.5 1.119-2.5 2.5v68c0 1.381 1.119 2.5 2.5 2.5s2.5-1.119 2.5-2.5v-68c0-1.381-1.119-2.5-2.5-2.5z"/></g></g><g><g><path d="m133 161.288c-1.381 0-2.5 1.119-2.5 2.5v88.718c0 1.381 1.119 2.5 2.5 2.5s2.5-1.119 2.5-2.5v-88.718c0-1.381-1.119-2.5-2.5-2.5z"/></g></g><g><g><path d="m123 161.288c-1.381 0-2.5 1.119-2.5 2.5v88.718c0 1.381 1.119 2.5 2.5 2.5s2.5-1.119 2.5-2.5v-88.718c0-1.381-1.119-2.5-2.5-2.5z"/></g></g><g><g><path d="m104.5 202.75h-9c-1.381 0-2.5 1.119-2.5 2.5s1.119 2.5 2.5 2.5h9c1.381 0 2.5-1.119 2.5-2.5s-1.119-2.5-2.5-2.5z"/></g></g><g><g><g><path d="m98.577 183.424c-1.148-.771-2.7-.463-3.469.685l-6.553 9.775c-.769 1.146-.462 2.699.685 3.468.428.287.911.424 1.39.424.806 0 1.597-.389 2.079-1.108l6.553-9.775c.768-1.148.462-2.701-.685-3.469z"/></g></g><g><g><path d="m111.494 193.958-6.604-9.852c-.769-1.147-2.322-1.456-3.469-.685-1.147.769-1.453 2.321-.685 3.468l6.604 9.852c.482.72 1.273 1.108 2.079 1.108.479 0 .962-.137 1.39-.424 1.148-.768 1.454-2.321.685-3.467z"/></g></g></g><g><g><path d="m111.127 130.563c-1.381 0-2.5 1.119-2.5 2.5v4.017c0 1.636-.538 3.193-1.557 4.502-.848 1.09-.652 2.661.438 3.509.457.354.997.526 1.533.526.745 0 1.482-.331 1.975-.965 1.683-2.164 2.61-4.854 2.61-7.572v-4.017c.001-1.38-1.118-2.5-2.499-2.5z"/></g></g><g><g><path d="m149.014 141.689c-1.058-1.311-1.641-2.948-1.641-4.609v-3.861c0-1.381-1.119-2.5-2.5-2.5s-2.5 1.119-2.5 2.5v3.861c0 2.801.977 5.553 2.75 7.75.494.612 1.217.93 1.947.93.551 0 1.106-.182 1.569-.555 1.074-.867 1.242-2.441.375-3.516z"/></g></g><g><g><path d="m204.111 172.065c-.417-7.489-5.585-13.751-12.856-15.581l-25.364-6.402c-1.519-.383-3.039-.908-4.518-1.563-1.264-.557-2.74.015-3.297 1.276-.558 1.263.013 2.739 1.276 3.298 1.737.767 3.525 1.385 5.315 1.836l25.366 6.403c5.14 1.293 8.791 5.719 9.084 10.963l1.248 34.297c.049 1.349 1.158 2.409 2.497 2.409.03 0 .062-.001.092-.002 1.38-.05 2.458-1.209 2.408-2.589z"/></g></g><g><g><path d="m206.917 249.141-1.042-28.646c-.05-1.379-1.191-2.456-2.589-2.407-1.38.05-2.458 1.209-2.408 2.589l1.045 28.695c.032.577-.249.966-.42 1.146-.17.181-.543.483-1.121.483h-144.763c-.578 0-.951-.303-1.121-.483-.171-.18-.452-.568-.417-1.194l1.029-28.294c.05-1.38-1.028-2.539-2.408-2.589-1.359-.019-2.539 1.027-2.589 2.407l-1.027 28.245c-.1 1.788.549 3.56 1.779 4.86 1.23 1.302 2.963 2.048 4.754 2.048h144.762c1.791 0 3.523-.746 4.754-2.048 1.23-1.302 1.879-3.073 1.782-4.812z"/></g></g><g><g><path d="m98.108 149.697c-.565-1.259-2.046-1.822-3.305-1.256-1.542.692-3.121 1.244-4.688 1.639-.125.031-18.207 4.596-18.321 4.625l-7.049 1.778c-7.273 1.831-12.44 8.093-12.86 15.631l-1.229 33.794c-.05 1.38 1.028 2.539 2.408 2.589.031.001.062.002.092.002 1.339 0 2.448-1.061 2.497-2.409l1.227-33.745c.295-5.293 3.947-9.719 9.088-11.013l7.052-1.779c.13-.033 18.079-4.564 18.31-4.622 1.856-.468 3.714-1.116 5.522-1.929 1.26-.565 1.822-2.045 1.256-3.305z"/></g></g><g><g><g><path d="m125.899 157.316-17.167-17.168c-1.894-1.896-4.979-1.896-6.874 0l-6.758 6.758c-1.896 1.896-1.896 4.979 0 6.874l17.167 17.167c.947.948 2.192 1.422 3.437 1.422s2.489-.474 3.437-1.422l6.758-6.758c1.895-1.894 1.895-4.978 0-6.873zm-10.194 9.997-16.971-16.971 6.561-6.561 16.97 16.971z"/></g></g></g><g><g><g><path d="m160.899 146.906-6.758-6.758c-1.895-1.896-4.979-1.895-6.874 0l-17.167 17.168c-1.895 1.895-1.895 4.979 0 6.873l6.758 6.758c.947.948 2.192 1.422 3.437 1.422 1.244 0 2.489-.475 3.437-1.422l17.167-17.167c1.896-1.895 1.896-4.978 0-6.874zm-20.604 20.407-6.561-6.561 16.97-16.971 6.561 6.561z"/></g></g></g><g><g><path d="m204.409 204.538h-24.617c-1.381 0-2.5 1.119-2.5 2.5s1.119 2.5 2.5 2.5h24.617c.05 0 .091.041.091.092v7.74c0 .051-.041.092-.091.092h-24.492c-1.381 0-2.5 1.119-2.5 2.5s1.119 2.5 2.5 2.5h24.492c2.807 0 5.091-2.284 5.091-5.092v-7.74c0-2.808-2.284-5.092-5.091-5.092z"/></g></g><g><g><path d="m76.187 217.462h-24.596c-.05 0-.091-.041-.091-.092v-7.74c0-.051.041-.092.091-.092h24.597c1.381 0 2.5-1.119 2.5-2.5s-1.119-2.5-2.5-2.5h-24.597c-2.807 0-5.091 2.284-5.091 5.092v7.74c0 2.808 2.284 5.092 5.091 5.092h24.596c1.381 0 2.5-1.119 2.5-2.5s-1.119-2.5-2.5-2.5z"/></g></g><g><g><path d="m130.417 158h-4.917c-1.381 0-2.5 1.119-2.5 2.5s1.119 2.5 2.5 2.5h4.917c1.381 0 2.5-1.119 2.5-2.5s-1.119-2.5-2.5-2.5z"/></g></g><g><g><g><path d="m110.042 193.25h-20.084c-2.734 0-4.958 2.225-4.958 4.958v14.084c0 2.733 2.224 4.958 4.958 4.958h20.084c2.734 0 4.958-2.225 4.958-4.958v-14.084c0-2.733-2.224-4.958-4.958-4.958zm-20.042 19.042-.042-14.042h20.042l.042 14z"/></g></g></g><g><g><g><path d="m100 173c-4.136 0-7.5 3.364-7.5 7.5s3.364 7.5 7.5 7.5 7.5-3.364 7.5-7.5-3.364-7.5-7.5-7.5zm0 10c-1.378 0-2.5-1.121-2.5-2.5s1.122-2.5 2.5-2.5 2.5 1.121 2.5 2.5-1.122 2.5-2.5 2.5z"/></g></g></g><g><g><g><path d="m182.899 55.43c-2.09-9.959-6.625-28.038-13.516-37.226-7.109-9.479-26.052-12.857-41.409-12.857-.001 0 0 0-.001 0-15.331 0-34.247 3.378-41.356 12.857-6.891 9.188-11.426 27.267-13.516 37.226-.873 4.156.958 8.463 4.555 10.715 3.687 2.308 9.622 5.06 16.961 5.06h66.766c7.339 0 13.274-2.752 16.961-5.06 3.597-2.252 5.427-6.559 4.555-10.715zm-7.209 6.476c-3.131 1.961-8.155 4.298-14.308 4.298h-66.765c-6.152 0-11.176-2.337-14.308-4.298-1.829-1.145-2.759-3.335-2.315-5.449 1.614-7.691 6.076-26.523 12.623-35.253 4.871-6.494 19.883-10.857 37.357-10.857 17.505 0 32.539 4.363 37.409 10.857 6.547 8.729 11.008 27.562 12.623 35.253.443 2.114-.487 4.305-2.316 5.449z"/></g></g></g><g><g><path d="m171.364 36.492c-16.161-15.857-70.462-15.896-86.721-.063-.989.963-1.01 2.546-.047 3.535.964.989 2.546 1.01 3.535.047 14.203-13.83 65.618-13.798 79.73.05.487.478 1.119.716 1.751.716.647 0 1.295-.25 1.785-.749.967-.986.952-2.569-.033-3.536z"/></g></g><g><g><path d="m181.459 62.532c-.134-1.374-1.355-2.374-2.732-2.244-1.374.136-2.378 1.358-2.243 2.732.286 2.915.336 5.795.149 8.561-.259 3.816-2.197 7.27-5.318 9.474-3.13 2.211-7.045 2.886-10.744 1.847-21.31-5.978-43.835-5.979-65.143 0-3.698 1.038-7.614.363-10.744-1.847-3.121-2.204-5.059-5.657-5.318-9.474-.189-2.797-.135-5.714.16-8.668.137-1.374-.865-2.6-2.239-2.736-1.373-.146-2.599.865-2.736 2.238-.323 3.231-.381 6.43-.173 9.504.36 5.325 3.066 10.144 7.422 13.22 4.366 3.083 9.825 4.021 14.979 2.577 20.423-5.73 42.015-5.73 62.441 0 1.587.445 3.202.664 4.806.664 3.605 0 7.152-1.107 10.173-3.241 4.356-3.076 7.062-7.895 7.422-13.22.207-3.04.152-6.198-.162-9.387z"/></g></g><g><g><path d="m166.009 84.083c-1.381 0-2.5 1.119-2.5 2.5v12.107c0 19.58-15.929 35.509-35.509 35.509s-35.509-15.928-35.509-35.509v-12.377c0-1.381-1.119-2.5-2.5-2.5s-2.5 1.119-2.5 2.5v12.377c0 22.337 18.172 40.509 40.509 40.509s40.509-18.172 40.509-40.509v-12.107c0-1.381-1.119-2.5-2.5-2.5z"/></g></g><g><g><path d="m180.871 74.534c-.879-1.063-2.455-1.215-3.52-.334-1.064.879-1.214 2.455-.334 3.52 1.468 1.776 2.276 4.007 2.276 6.28 0 5.467-4.447 9.914-9.914 9.914h-2.462c-1.381 0-2.5 1.119-2.5 2.5s1.119 2.5 2.5 2.5h2.462c8.223 0 14.914-6.69 14.914-14.914 0-3.434-1.215-6.796-3.422-9.466z"/></g></g><g><g><path d="m88.958 93.914h-2.337c-5.466 0-9.914-4.447-9.914-9.914 0-2.371.871-4.675 2.452-6.487.908-1.04.8-2.619-.24-3.527-1.041-.907-2.62-.8-3.527.24-2.376 2.724-3.685 6.194-3.685 9.774 0 8.224 6.69 14.914 14.914 14.914h2.337c1.381 0 2.5-1.119 2.5-2.5s-1.119-2.5-2.5-2.5z"/></g></g><g><g><path d="m170.455 19.858c-.669-1.208-2.191-1.646-3.398-.976-1.208.669-1.645 2.19-.976 3.397.813 1.469 1.243 3.185 1.243 4.962v39.352c0 1.381 1.119 2.5 2.5 2.5s2.5-1.119 2.5-2.5v-39.351c0-2.623-.646-5.177-1.869-7.384z"/></g></g><g><g><path d="m89.668 18.118c-1.145-.771-2.699-.471-3.471.674-1.65 2.445-2.522 5.367-2.522 8.45v39.414c0 1.381 1.119 2.5 2.5 2.5s2.5-1.119 2.5-2.5v-39.414c0-2.083.576-4.038 1.667-5.653.773-1.145.471-2.698-.674-3.471z"/></g></g></g><g><g><g><path d="m255.58 88.987c-.744-1.163-2.29-1.502-3.454-.758-1.749 1.12-4.007 1.349-6.041.614-2-.723-3.453-2.223-4.088-4.224-.608-1.91-2.543-3.018-4.498-2.58-1.057.239-2.123.22-3.167-.054-1.134-.299-2.319-.066-3.255.635-.935.699-1.49 1.771-1.523 2.94-.104 3.565-2.809 5.548-5.094 6.162-2.363.635-5.56.23-7.444-2.814-1.091-1.762-3.364-2.342-5.176-1.32-2.926 1.65-6.677.875-8.727-1.797-.615-.803-1.549-1.331-2.561-1.449-1.014-.115-2.042.181-2.827.822-1.615 1.322-3.706 1.826-5.736 1.376-1.963-.434-3.899.687-4.503 2.604-.621 1.973-2.041 3.461-3.999 4.191-2.034.76-4.304.562-6.074-.528-1.178-.726-2.716-.358-3.439.818-.724 1.176-.357 2.716.818 3.439 1.852 1.14 4.005 1.723 6.183 1.723 1.436 0 2.882-.254 4.26-.768 3.063-1.143 5.45-3.454 6.674-6.421 2.82.377 5.646-.279 8.015-1.851 3.434 3.637 8.877 4.726 13.438 2.668 2.844 3.808 7.597 5.423 12.397 4.136 4.72-1.27 8.002-4.904 8.672-9.458 1.046.143 2.11.146 3.155.005 1.25 2.999 3.682 5.319 6.801 6.446 3.484 1.261 7.386.847 10.436-1.105 1.162-.743 1.502-2.29.757-3.452z"/></g></g><g><g><path d="m255.883 37.376c-.186-1.367-1.444-2.336-2.813-2.142-.458.063-.898.146-1.324.252-1.176-3.971-4.369-6.971-8.596-7.977-4.186-.995-8.344.207-11.174 3.154-2.774-2.859-6.838-4.074-10.926-3.186-4.11.893-7.315 3.709-8.638 7.495-2.915-1.04-6.133-.876-9.019.493-2.866 1.361-5.014 3.738-6.047 6.64-4.335-1.542-9.229-.404-12.434 2.904-1.817-1.49-4.065-2.408-6.449-2.617-1.366-.121-2.588.897-2.708 2.271-.121 1.376.896 2.589 2.272 2.709 1.626.143 3.137.853 4.255 1.998.721.739 1.706 1.151 2.731 1.151.072 0 .145-.002.217-.006 1.097-.063 2.112-.596 2.785-1.465 1.971-2.545 5.494-3.356 8.377-1.929 1.065.527 2.285.539 3.351.034 1.066-.507 1.83-1.462 2.095-2.622.455-1.993 1.803-3.652 3.699-4.553 1.917-.909 4.075-.907 5.92.008 1.074.529 2.302.54 3.373.027 1.068-.512 1.829-1.475 2.086-2.64.666-3.01 3.12-4.563 5.194-5.014 2.077-.452 4.958-.056 6.813 2.408.732.973 1.846 1.53 3.057 1.53h.009c1.212-.003 2.326-.564 3.054-1.54 1.889-2.53 4.829-2.895 6.949-2.389 2.121.504 4.583 2.156 5.135 5.282.199 1.132.886 2.104 1.883 2.667.994.561 2.175.646 3.241.236.457-.176.943-.298 1.488-.371 1.37-.18 2.329-1.439 2.144-2.808z"/></g></g></g><g><g><g><path d="m202.509 115.938c0-.664-.264-1.3-.734-1.769-.469-.468-1.104-.73-1.766-.73-.001 0-.002 0-.003 0l-11.623.016c-.013 0-.024 0-.037 0-8.153 0-15.666-3.742-20.615-10.271-.834-1.102-2.401-1.317-3.502-.482-1.1.834-1.316 2.402-.482 3.502 5.903 7.788 14.866 12.251 24.599 12.251h.044l9.121-.013.027 47.783c.001 1.381 1.12 2.499 2.5 2.499h.001c1.381-.001 2.5-1.121 2.499-2.501z"/></g></g><g><g><path d="m202.471 87.622c-.002-1.38-1.121-2.497-2.5-2.497-.001 0-.002 0-.003 0-1.381.002-2.499 1.123-2.497 2.503l.02 14.553-9.123.012c-.007 0-.013 0-.02 0-5.211 0-10.061-2.827-12.662-7.381-.684-1.199-2.211-1.618-3.411-.932-1.199.685-1.616 2.211-.931 3.41 3.488 6.11 10.001 9.902 17.003 9.902h.026l11.623-.015c.663-.001 1.299-.265 1.767-.734s.731-1.105.73-1.769z"/></g></g><g><g><path d="m244.71 89.903c-.002-1.38-1.121-2.497-2.5-2.497-.001 0-.002 0-.003 0-1.381.002-2.499 1.123-2.497 2.503l.027 20.182c.006 5.087-4.126 9.23-9.213 9.237l-12.243.017-.036-27.182c-.002-1.38-1.121-2.497-2.5-2.497-.001 0-.002 0-.003 0-1.38.002-2.499 1.123-2.497 2.503l.039 29.682c.001.663.265 1.299.734 1.768.469.467 1.104.729 1.766.729h.003l14.743-.02c7.844-.011 14.217-6.4 14.207-14.243z"/></g></g><g><g><path d="m255.974 90.333c-.002-1.38-1.121-2.497-2.5-2.497-.001 0-.002 0-.003 0-1.38.002-2.499 1.123-2.497 2.503l.026 19.736c.015 11.298-9.164 20.501-20.461 20.516l-14.743.02c-1.38.002-2.498 1.121-2.497 2.501l.033 62.921c0 1.381 1.12 2.499 2.5 2.499h.001c1.38-.001 2.499-1.121 2.499-2.501l-.032-60.423 12.245-.017c14.054-.019 25.473-11.468 25.454-25.521z"/></g></g></g><g><g><g><path d="m77.585 42.39c-2.404.2-4.669 1.121-6.498 2.621-3.205-3.307-8.098-4.448-12.434-2.904-1.033-2.901-3.181-5.279-6.047-6.64-2.884-1.369-6.103-1.534-9.019-.493-1.323-3.786-4.528-6.603-8.638-7.495-4.087-.89-8.151.325-10.926 3.186-2.829-2.945-6.986-4.146-11.174-3.154-4.227 1.006-7.42 4.006-8.596 7.977-.426-.106-.865-.189-1.324-.252-1.373-.195-2.628.774-2.813 2.143s.774 2.627 2.142 2.813c.544.073 1.031.195 1.487.37 1.067.412 2.248.327 3.242-.235.998-.563 1.684-1.535 1.883-2.667.551-3.126 3.014-4.778 5.135-5.282 2.122-.504 5.061-.142 6.949 2.388.729.977 1.842 1.538 3.054 1.541h.009c1.21 0 2.325-.558 3.057-1.53 1.855-2.464 4.734-2.861 6.813-2.408 2.074.45 4.528 2.004 5.194 5.013.257 1.166 1.018 2.129 2.086 2.641 1.071.514 2.3.503 3.374-.028 1.846-.913 4.003-.916 5.919-.007 1.897.9 3.246 2.56 3.7 4.551.264 1.161 1.027 2.117 2.094 2.623 1.065.508 2.287.495 3.351-.033 2.884-1.428 6.407-.615 8.379 1.93.672.868 1.687 1.401 2.784 1.464.073.004.145.006.217.006 1.025 0 2.011-.413 2.733-1.152 1.123-1.152 2.644-1.862 4.282-1.999 1.376-.115 2.398-1.323 2.283-2.699-.114-1.383-1.32-2.406-2.698-2.289z"/></g></g><g><g><path d="m82.024 93.629c-.723-1.175-2.261-1.542-3.439-.82-1.77 1.09-4.041 1.286-6.074.526-1.957-.73-3.376-2.219-3.997-4.191-.604-1.916-2.539-3.036-4.503-2.603-2.031.449-4.121-.054-5.738-1.378-.783-.64-1.816-.939-2.824-.82-1.012.118-1.946.646-2.561 1.448-2.051 2.676-5.803 3.448-8.728 1.798-1.812-1.021-4.084-.44-5.176 1.321-1.884 3.043-5.08 3.449-7.444 2.813-2.285-.614-4.99-2.597-5.094-6.162-.034-1.169-.589-2.241-1.523-2.94-.935-.701-2.121-.933-3.255-.635-1.044.273-2.109.293-3.168.054-1.953-.438-3.888.67-4.497 2.582-.635 1.999-2.087 3.499-4.088 4.222-2.033.734-4.292.505-6.041-.614-1.164-.745-2.71-.406-3.454.758-.745 1.162-.405 2.709.758 3.453 3.049 1.952 6.95 2.367 10.436 1.105 3.12-1.127 5.552-3.447 6.801-6.446 1.046.141 2.11.138 3.154-.005.67 4.554 3.952 8.188 8.672 9.458 4.799 1.288 9.553-.328 12.397-4.136 4.56 2.056 10.003.968 13.438-2.668 2.369 1.571 5.194 2.228 8.015 1.851 1.224 2.967 3.61 5.277 6.671 6.42 1.378.515 2.826.769 4.263.769 2.176 0 4.329-.582 6.179-1.72 1.177-.724 1.544-2.264.82-3.44z"/></g></g></g><g><g><path d="m40.258 89.583h-.003c-1.379 0-2.498 1.117-2.5 2.497l-.036 27.265-12.243-.017c-5.087-.007-9.22-4.15-9.213-9.237l.027-20.047c.002-1.38-1.116-2.501-2.497-2.503h-.003c-1.379 0-2.498 1.117-2.5 2.497l-.027 20.047c-.01 7.843 6.363 14.232 14.207 14.243l14.743.02h.003c.662 0 1.297-.263 1.766-.729.469-.469.733-1.104.734-1.768l.039-29.765c.001-1.38-1.117-2.501-2.497-2.503z"/></g></g><g><g><path d="m83.62 94.14c-1.188-.705-2.722-.312-3.425.876-2.624 4.429-7.429 7.177-12.544 7.177h-.018l-9.123-.012.019-14.512c.002-1.38-1.116-2.501-2.497-2.503h-.003c-1.379 0-2.498 1.117-2.5 2.497l-.022 17.012c-.001.663.262 1.299.73 1.769s1.104.733 1.767.734l11.623.015h.024c6.873 0 13.327-3.688 16.846-9.628.703-1.188.311-2.722-.877-3.425z"/></g></g><g><g><path d="m91.532 103.074c-1.087-.853-2.659-.659-3.509.428-4.95 6.327-12.374 9.953-20.372 9.953h-.034l-11.623-.016h-.003c-.662 0-1.297.263-1.766.73-.47.469-.733 1.104-.734 1.769l-.029 50.144c-.001 1.38 1.118 2.5 2.499 2.501h.001c1.38 0 2.499-1.118 2.5-2.499l.027-47.642 9.121.013h.041c9.546 0 18.405-4.326 24.309-11.871.852-1.088.66-2.659-.428-3.51z"/></g></g><g><g><path d="m40.204 130.61-14.743-.02c-11.297-.014-20.476-9.217-20.461-20.515l.026-19.413c.002-1.38-1.116-2.501-2.497-2.503h-.003c-1.379 0-2.498 1.117-2.5 2.497l-.026 19.413c-.019 14.054 11.4 25.503 25.454 25.521l12.245.017-.034 64.642c-.001 1.38 1.118 2.5 2.499 2.501h.001c1.38 0 2.499-1.118 2.5-2.499l.036-67.14c.001-1.38-1.117-2.499-2.497-2.501z"/></g></g><g><g><path d="m55.619 251h-47.713c-1.602 0-2.906-1.304-2.906-2.906v-43.684c1.872-4.692 6.442-7.738 11.478-7.677 4.208.068 8.026 2.289 10.212 5.938 1.748 2.918 5.386 3.903 8.281 2.243 5.178-2.97 11.862-1.615 15.546 3.154.843 1.093 2.413 1.294 3.507.45 1.093-.844 1.294-2.414.45-3.507-5.203-6.736-14.657-8.642-21.991-4.436-.519.296-1.165.092-1.505-.476-3.081-5.142-8.471-8.271-14.419-8.368-7.32-.069-13.917 4.45-16.412 11.371-.097.274-.147.561-.147.85v44.142c0 4.359 3.546 7.906 7.906 7.906h47.713c1.381 0 2.5-1.119 2.5-2.5s-1.119-2.5-2.5-2.5z"/></g></g><g><g><path d="m255.365 196.524c-3.464-3.88-8.739-6.043-14.115-5.765-5.158.26-9.628 2.646-12.587 6.72-.253.349-.565.458-.783.489s-.554.012-.897-.257c-3.936-3.064-9.047-4.204-14.028-3.126-5.016 1.086-9.23 4.262-11.563 8.712-.641 1.223-.169 2.733 1.054 3.374 1.223.642 2.734.169 3.375-1.054 1.643-3.134 4.628-5.374 8.192-6.146 3.527-.76 7.135.033 9.898 2.185 1.347 1.049 3.006 1.496 4.669 1.262 1.661-.234 3.126-1.123 4.127-2.5 2.053-2.826 5.176-4.483 8.793-4.665 3.553-.185 7.042 1.096 9.499 3.443v48.896c0 1.603-1.304 2.906-2.906 2.906h-47.713c-1.381 0-2.5 1.119-2.5 2.5s1.119 2.5 2.5 2.5h47.713c4.359 0 7.906-3.547 7.906-7.906v-49.904c.001-.613-.225-1.206-.634-1.664z"/></g></g><g><g><path d="m54.014 226.042c-.304-1.348-1.648-2.191-2.988-1.891-1.837.414-3.589 1.088-5.206 2.003-.852.483-1.849.235-2.323-.572-5.38-9.179-17.243-12.358-26.444-7.08-.802.457-1.792.16-2.306-.698-2.522-4.209-6.482-7.304-11.151-8.713-1.322-.396-2.717.349-3.116 1.671s.35 2.717 1.671 3.116c3.475 1.049 6.425 3.355 8.306 6.496 1.918 3.203 5.909 4.284 9.083 2.465 6.83-3.917 15.643-1.553 19.644 5.272 1.244 2.121 3.438 3.294 5.725 3.294 1.138 0 2.298-.29 3.374-.899 1.19-.674 2.482-1.17 3.841-1.476 1.347-.303 2.193-1.641 1.89-2.988z"/></g></g><g><g><path d="m255.46 210.252c-.62-1.234-2.123-1.734-3.356-1.111-2.647 1.33-4.879 3.229-6.633 5.643-.295.406-.715.667-1.184.732-.472.07-.953-.068-1.354-.381-4.484-3.491-10.312-4.79-15.985-3.561-5.719 1.238-10.523 4.857-13.181 9.929-.443.845-1.444 1.149-2.331.705-2.338-1.173-4.871-1.844-7.527-1.994-1.37-.095-2.56.976-2.637 2.355-.078 1.378.977 2.559 2.355 2.637 1.97.111 3.843.606 5.568 1.471.999.501 2.053.739 3.086.739 2.415 0 4.714-1.302 5.915-3.593 1.968-3.755 5.543-6.438 9.81-7.362 4.225-.914 8.545.04 11.855 2.619 1.48 1.152 3.299 1.646 5.126 1.387 1.822-.258 3.43-1.232 4.529-2.745 1.279-1.762 2.905-3.146 4.833-4.114 1.233-.62 1.731-2.123 1.111-3.356z"/></g></g></g></g></svg>