<svg width="17" height="17" viewBox="0 0 17 17" fill="none" xmlns="http://www.w3.org/2000/svg">
<path d="M13.4102 0.941947L16.0592 3.59092C16.7914 4.32316 16.7914 5.51034 16.0592 6.24257L13.9055 8.39585C14.808 8.53123 15.5 9.3098 15.5 10.25V14.625C15.5 15.6605 14.6605 16.5 13.625 16.5H2.375C1.33947 16.5 0.5 15.6605 0.5 14.625V3.37501C0.5 2.33947 1.33947 1.50001 2.375 1.50001H6.75C7.69078 1.50001 8.46974 2.19288 8.60441 3.09618L10.7586 0.941947C11.4908 0.209714 12.678 0.209714 13.4102 0.941947ZM1.75 14.625C1.75 14.9702 2.02982 15.25 2.375 15.25L7.37417 15.2494L7.375 9.62501L1.75 9.62444V14.625ZM8.62417 15.2494L13.625 15.25C13.9702 15.25 14.25 14.9702 14.25 14.625V10.25C14.25 9.90483 13.9702 9.62501 13.625 9.62501L8.62417 9.62444V15.2494ZM6.75 2.75001H2.375C2.02982 2.75001 1.75 3.02983 1.75 3.37501V8.37444H7.375V3.37501C7.375 3.02983 7.09518 2.75001 6.75 2.75001ZM8.625 6.75777V8.37501L10.2417 8.37444L8.625 6.75777Z" fill="#1E2E48"/>
</svg>
