<svg width="147" height="38" viewBox="0 0 147 38" fill="none" xmlns="http://www.w3.org/2000/svg">
<path fill-rule="evenodd" clip-rule="evenodd" d="M104.273 13.7197C105.53 13.7198 106.622 13.9712 107.55 14.4736C108.497 14.957 109.252 15.5661 109.812 16.3008V13.9814H113.147V29.96H109.812V27.582C109.252 28.3359 108.488 28.9642 107.521 29.4668C106.555 29.9695 105.452 30.2207 104.215 30.2207C102.842 30.2207 101.586 29.8727 100.445 29.1768C99.3046 28.4614 98.3954 27.4754 97.7188 26.2188C97.0616 24.943 96.7335 23.5028 96.7334 21.8984C96.7334 20.2938 97.0614 18.8721 97.7188 17.6348C98.3954 16.3974 99.3046 15.4403 100.445 14.7637C101.605 14.0678 102.882 13.7197 104.273 13.7197ZM104.969 16.5908C104.118 16.5909 103.325 16.8032 102.591 17.2285C101.856 17.6345 101.257 18.2438 100.793 19.0557C100.348 19.8483 100.126 20.7964 100.126 21.8984C100.126 23.0002 100.348 23.9667 100.793 24.7979C101.257 25.6291 101.856 26.2673 102.591 26.7119C103.345 27.1372 104.138 27.3495 104.969 27.3496C105.819 27.3496 106.612 27.1371 107.347 26.7119C108.081 26.2866 108.672 25.6683 109.116 24.8564C109.58 24.0251 109.812 23.058 109.812 21.9561C109.812 20.8541 109.58 19.897 109.116 19.085C108.672 18.273 108.081 17.6538 107.347 17.2285C106.612 16.8034 105.819 16.5908 104.969 16.5908Z" fill="#1E2E48"/>
<path fill-rule="evenodd" clip-rule="evenodd" d="M131.642 29.96H128.307V27.5527C127.765 28.3259 127.011 28.9642 126.045 29.4668C125.098 29.9694 124.005 30.2207 122.768 30.2207C121.376 30.2207 120.099 29.8728 118.939 29.1768C117.799 28.4614 116.891 27.4754 116.214 26.2188C115.557 24.9429 115.228 23.5029 115.228 21.8984C115.228 20.2938 115.557 18.8721 116.214 17.6348C116.891 16.3976 117.799 15.4403 118.939 14.7637C120.099 14.0677 121.386 13.7197 122.797 13.7197C123.841 13.7198 124.865 13.9522 125.87 14.416C126.895 14.8607 127.707 15.4599 128.307 16.2139V8.5H131.642V29.96ZM123.464 16.5908C122.613 16.5908 121.82 16.8032 121.085 17.2285C120.35 17.6345 119.751 18.2438 119.287 19.0557C118.842 19.8483 118.62 20.7964 118.62 21.8984C118.62 23.0001 118.843 23.9667 119.287 24.7979C119.751 25.629 120.35 26.2673 121.085 26.7119C121.839 27.1372 122.633 27.3496 123.464 27.3496C124.314 27.3495 125.107 27.1372 125.842 26.7119C126.576 26.2867 127.166 25.6681 127.61 24.8564C128.074 24.0251 128.307 23.058 128.307 21.9561C128.307 20.8541 128.074 19.897 127.61 19.085C127.166 18.273 126.576 17.6538 125.842 17.2285C125.107 16.8033 124.314 16.5909 123.464 16.5908Z" fill="#1E2E48"/>
<path d="M140.362 13.7197C142.18 13.7197 143.64 14.1843 144.742 15.1123C145.863 16.0209 146.463 17.2676 146.54 18.8525H143.233C143.175 18.1374 142.885 17.5668 142.363 17.1416C141.841 16.7166 141.136 16.504 140.247 16.5039C139.377 16.5039 138.71 16.6685 138.246 16.9971C137.782 17.3257 137.55 17.7605 137.55 18.3018C137.55 18.7271 137.704 19.085 138.014 19.375C138.323 19.665 138.7 19.8973 139.145 20.0713C139.589 20.226 140.247 20.4284 141.117 20.6797C142.277 20.989 143.224 21.3081 143.959 21.6367C144.713 21.946 145.36 22.4107 145.901 23.0293C146.443 23.648 146.724 24.4695 146.743 25.4941C146.743 26.4028 146.491 27.2144 145.988 27.9297C145.486 28.645 144.771 29.2063 143.843 29.6123C142.934 30.0183 141.861 30.2207 140.624 30.2207C139.367 30.2207 138.236 29.9984 137.23 29.5537C136.245 29.0898 135.462 28.4714 134.882 27.6982C134.302 26.9056 133.993 26.0253 133.954 25.0586H137.376C137.434 25.7352 137.753 26.3055 138.333 26.7695C138.932 27.2141 139.676 27.4365 140.565 27.4365C141.493 27.4365 142.209 27.263 142.712 26.915C143.234 26.5478 143.495 26.0839 143.495 25.5234C143.495 24.9242 143.205 24.4795 142.625 24.1895C142.064 23.8995 141.165 23.5804 139.928 23.2324C138.729 22.9038 137.753 22.5847 136.999 22.2754C136.245 21.9661 135.587 21.4915 135.026 20.8535C134.485 20.2156 134.215 19.3748 134.215 18.3311C134.215 17.4804 134.466 16.7067 134.969 16.0107C135.471 15.2956 136.187 14.7351 137.114 14.3291C138.061 13.9232 139.144 13.7198 140.362 13.7197Z" fill="#1E2E48"/>
<path fill-rule="evenodd" clip-rule="evenodd" d="M71.2695 29.96H67.79L66.3398 25.8418H57.9014L56.4512 29.96H53L60.2207 9.77637H64.0488L71.2695 29.96ZM58.8291 23.1445H65.4121L62.1348 13.7783L58.8291 23.1445Z" fill="#1E2E48"/>
<path d="M76.5557 29.96H73.25V9.80469H76.5557V29.96Z" fill="#1E2E48"/>
<path d="M89.415 27.292H96.2305V29.96H86.1094V9.80469H89.415V27.292Z" fill="#1E2E48"/>
<path d="M8.14453 7.01758H6.86035C6.18345 7.01762 5.7155 7.17006 5.4209 7.44238C5.13563 7.69163 4.96582 8.13334 4.96582 8.81152C4.96583 9.31219 5.00174 9.93718 5.07324 10.6875C5.14471 11.4199 5.18968 11.9207 5.20801 12.1875C5.38746 13.8695 5.47754 15.1039 5.47754 15.8848C5.4775 16.8442 5.23567 17.6632 4.74219 18.3301C4.32339 18.86 3.73023 19.2461 2.98145 19.4873C3.71673 19.7268 4.29878 20.1075 4.71582 20.6357L4.74121 20.668C5.23469 21.3349 5.4775 22.1558 5.47754 23.1152C5.47754 23.8961 5.38746 25.1306 5.20801 26.8125C5.18969 27.0792 5.14471 27.5889 5.07324 28.3389C5.00177 29.0715 4.96583 29.6879 4.96582 30.1885C4.96582 30.8456 5.12147 31.2774 5.39062 31.5303L5.41699 31.5537C5.71159 31.826 6.18345 31.9824 6.86035 31.9824H8.14453V34.416H6.40234C5.14718 34.416 4.12927 34.0731 3.37012 33.3691C2.58792 32.6606 2.20902 31.643 2.20898 30.3467C2.20898 29.5655 2.29987 28.313 2.47949 26.5947C2.65907 24.9821 2.74805 23.8496 2.74805 23.1943C2.74804 22.4789 2.53161 21.9194 2.1123 21.498C1.68917 21.0731 1.04168 20.771 0.147461 20.6084L0 20.582V18.418L0.147461 18.3916C1.04168 18.229 1.68917 17.9269 2.1123 17.502C2.53161 17.0806 2.74804 16.5211 2.74805 15.8057C2.74805 15.1504 2.65907 14.0198 2.47949 12.4072C2.29987 10.689 2.20898 9.43448 2.20898 8.65332C2.20902 7.35697 2.5879 6.33942 3.37012 5.63086L3.40625 5.59863C4.16149 4.9168 5.16678 4.58405 6.40234 4.58398H8.14453V7.01758Z" fill="#1E2E48"/>
<path d="M40.5977 4.58398C41.8528 4.58405 42.8707 4.92695 43.6299 5.63086C44.4121 6.33942 44.791 7.35696 44.791 8.65332C44.791 9.43448 44.7001 10.687 44.5205 12.4053C44.3409 14.0179 44.252 15.1504 44.252 15.8057C44.252 16.5211 44.4684 17.0806 44.8877 17.502C45.3108 17.9269 45.9583 18.229 46.8525 18.3916L47 18.418V20.582L46.8525 20.6084C45.9583 20.771 45.3108 21.0731 44.8877 21.498C44.4684 21.9194 44.252 22.4789 44.252 23.1943C44.252 23.8087 44.3305 24.8413 44.4883 26.2969L44.5205 26.5928C44.7001 28.311 44.791 29.5655 44.791 30.3467C44.791 31.643 44.4121 32.6606 43.6299 33.3691C42.8707 34.0731 41.8528 34.416 40.5977 34.416H38.8555V31.9824H40.1396C40.8166 31.9824 41.2845 31.8299 41.5791 31.5576C41.8644 31.3084 42.0342 30.8667 42.0342 30.1885C42.0342 29.6878 41.9983 29.0716 41.9268 28.3389C41.8553 27.589 41.8103 27.0792 41.792 26.8125C41.6125 25.1306 41.5225 23.8961 41.5225 23.1152C41.5225 22.1558 41.7643 21.3368 42.2578 20.6699C42.6764 20.1252 43.2678 19.7316 44.0176 19.4873C43.269 19.2461 42.6795 18.8638 42.2607 18.334C41.7673 17.6671 41.5225 16.8442 41.5225 15.8848C41.5225 15.1039 41.6125 13.8695 41.792 12.1875C41.8057 11.9877 41.8344 11.6565 41.8779 11.1953L41.9268 10.6875C41.9983 9.93718 42.0342 9.31219 42.0342 8.81152C42.0342 8.13333 41.8683 7.69554 41.583 7.44629C41.2884 7.17397 40.8166 7.01762 40.1396 7.01758L38.8555 6.01758V4.58398H40.5977Z" fill="#1E2E48"/>
<path fill-rule="evenodd" clip-rule="evenodd" d="M26.7344 3.87109C26.7343 2.00906 25.2074 0.500007 23.3252 0.5C21.4431 0.500153 19.9171 2.00915 19.917 3.87109C19.917 5.35411 20.885 6.61313 22.2295 7.06445V12.5L17.4932 9.13965C17.8142 8.62546 18 8.01951 18 7.37109C17.9998 5.50923 16.4738 4.00008 14.5918 4C12.7097 4.00001 11.1838 5.50918 11.1836 7.37109C11.1836 9.23318 12.7096 10.7422 14.5918 10.7422C15.0151 10.7422 15.4206 10.6661 15.7949 10.5264L22.2295 15.251V20.7433L15.7366 26.1648C15.3283 25.9937 14.8794 25.8989 14.4085 25.8989C12.5263 25.8989 11 27.408 11 29.2701C11 31.1322 12.5263 32.6413 14.4085 32.6414C16.2907 32.6414 17.817 31.1322 17.817 29.2701C17.817 28.6668 17.6564 28.1003 17.3754 27.6101L22.2295 23.5V30.9355C20.885 31.3869 19.917 32.6459 19.917 34.1289C19.9171 35.9908 21.4431 37.4998 23.3252 37.5C25.2074 37.5 26.7343 35.9909 26.7344 34.1289C26.7344 32.646 25.7662 31.387 24.4219 30.9355V25.5L28.816 29.329C28.495 29.8432 28.3095 30.4491 28.3095 31.0975C28.3095 32.9596 29.8357 34.4688 31.718 34.4688C33.6002 34.4687 35.1265 32.9596 35.1265 31.0975C35.1265 29.2354 33.6002 27.7263 31.718 27.7263C31.2945 27.7263 30.8888 27.8028 30.5144 27.9427L24.4219 22.9172V19.1348L31.1602 12.4697C31.5684 12.6408 32.0174 12.7363 32.4883 12.7363C34.3704 12.7363 35.8963 11.2271 35.8965 9.36523C35.8965 7.50314 34.3705 5.99317 32.4883 5.99316C30.6061 5.99325 29.0801 7.50319 29.0801 9.36523C29.0802 9.96828 29.2407 10.5345 29.5215 11.0244L24.4219 16.0684V7.06445C25.7662 6.61304 26.7344 5.35399 26.7344 3.87109ZM22.2832 34.1289C22.2832 33.5602 22.7496 33.0988 23.3252 33.0986C23.9009 33.0986 24.3672 33.5601 24.3672 34.1289C24.3671 34.6977 23.9009 35.1592 23.3252 35.1592C22.7496 35.159 22.2833 34.6976 22.2832 34.1289ZM31.4463 9.36523C31.4463 8.79647 31.9126 8.33407 32.4883 8.33398C33.064 8.33399 33.5303 8.79642 33.5303 9.36523C33.53 9.93386 33.0639 10.3955 32.4883 10.3955C31.9128 10.3954 31.4465 9.93382 31.4463 9.36523ZM13.5498 7.37109C13.55 6.80245 14.0162 6.34083 14.5918 6.34082C15.1673 6.3409 15.6336 6.8025 15.6338 7.37109C15.6338 7.93986 15.1675 8.40129 14.5918 8.40137C14.0161 8.40136 13.5498 7.9399 13.5498 7.37109ZM22.2832 3.87109C22.2833 3.30243 22.7496 2.84097 23.3252 2.84082C23.9009 2.84083 24.3671 3.30234 24.3672 3.87109C24.3672 4.43991 23.9009 4.90136 23.3252 4.90137C22.7496 4.90121 22.2832 4.43982 22.2832 3.87109ZM31.718 32.1279C32.2937 32.1279 32.76 31.6663 32.76 31.0975C32.76 30.5287 32.2937 30.0672 31.718 30.0672C31.1422 30.0672 30.6759 30.5287 30.6759 31.0975C30.6759 31.6663 31.1422 32.1279 31.718 32.1279ZM15.4506 29.2701C15.4506 29.8389 14.9842 30.3005 14.4085 30.3005C13.8328 30.3005 13.3665 29.8389 13.3665 29.2701C13.3665 28.7013 13.8328 28.2398 14.4085 28.2398C14.9842 28.2398 15.4506 28.7013 15.4506 29.2701Z" fill="#1E2E48"/>
</svg>
