<svg id="Fill_Outline" height="512" viewBox="0 0 64 64" width="512" xmlns="http://www.w3.org/2000/svg" data-name="Fill Outline"><path d="m13 10h45a0 0 0 0 1 0 0v37.4a13.6 13.6 0 0 1 -13.6 13.6h-31.4a0 0 0 0 1 0 0v-51a0 0 0 0 1 0 0z" fill="#6f7e5d"/><path d="m9 7h45v50h-45z" fill="#ded9af"/><path d="m44 38v-5a2 2 0 0 1 2-2 2 2 0 0 1 2 2v5z" fill="#5b5e33"/><circle cx="46" cy="48" fill="#7a9b69" r="13"/><path d="m7 49a2 2 0 0 0 0 4h16v-4z" fill="#f9a236"/><path d="m29 51-2-2h-4v4h4z" fill="#d85e27"/><path d="m47 9c0 5-6 8-6 8s-6-3-6-8a6 6 0 0 1 12 0z" fill="#f9a236"/><path d="m6 15h7l6 3v-3h2a3 3 0 0 0 3-3v-6a3 3 0 0 0 -3-3h-15a3 3 0 0 0 -3 3v6a3 3 0 0 0 3 3z" fill="#6f7e5d"/><path d="m44 50 5.5 1.5-1.5-5.5-5.5-1.5z" fill="#ef5249"/><path d="m44 50 5.5 1.5-1.5-5.5z" fill="#ccdce5"/><circle cx="41" cy="9" fill="#d85e27" r="2"/><path d="m49 34.332v-1.332a3.06 3.06 0 0 0 -.035-.348 3.942 3.942 0 0 0 1.035-2.652 4 4 0 0 0 -8 0 3.942 3.942 0 0 0 1.035 2.652 3.06 3.06 0 0 0 -.035.348v1.332a14 14 0 1 0 6 0zm-3-6.332a1.972 1.972 0 0 1 1.871 2.674 2.934 2.934 0 0 0 -3.742 0 1.972 1.972 0 0 1 1.871-2.674zm-1 5a1 1 0 0 1 2 0v1.051c-.332-.024-.662-.051-1-.051s-.668.027-1 .051zm1 27a12 12 0 1 1 12-12 12.013 12.013 0 0 1 -12 12z"/><path d="m38.636 53.364h2v2h-2z" transform="matrix(.707 -.707 .707 .707 -26.832 43.95)"/><path d="m51.364 40.636h2v2h-2z" transform="matrix(.707 -.707 .707 .707 -14.104 49.222)"/><path d="m38.636 40.636h2v2h-2z" transform="matrix(.707 -.707 .707 .707 -17.832 40.222)"/><path d="m51.364 53.364h2v2h-2z" transform="matrix(.707 -.707 .707 .707 -23.104 52.95)"/><path d="m36 47h2v2h-2z"/><path d="m54 47h2v2h-2z"/><path d="m45 38h2v2h-2z"/><path d="m45 56h2v2h-2z"/><path d="m49.293 43.293-1.59 1.59-4.94-1.348a1 1 0 0 0 -1.228 1.228l1.348 4.94-1.59 1.59 1.414 1.414 1.59-1.59 4.94 1.348a1.028 1.028 0 0 0 .263.035 1 1 0 0 0 .965-1.263l-1.348-4.937 1.59-1.59zm-4.479 5.893-.889-3.261 3.261.889.889 3.261z"/><path d="m17.5 34h16a3.5 3.5 0 0 0 0-7h-17a1.5 1.5 0 0 1 0-3h22a3.5 3.5 0 0 0 3.5-3.5v-.5h-2v.5a1.5 1.5 0 0 1 -1.5 1.5h-22a3.5 3.5 0 0 0 0 7h17a1.5 1.5 0 0 1 0 3h-16a3.5 3.5 0 0 0 0 7h6a1.5 1.5 0 0 1 1.5 1.5v1.5h2v-1.5a3.5 3.5 0 0 0 -3.5-3.5h-6a1.5 1.5 0 0 1 0-3z"/><path d="m25 44h2v2h-2z"/><path d="m41 12a3 3 0 1 0 -3-3 3 3 0 0 0 3 3zm0-4a1 1 0 1 1 -1 1 1 1 0 0 1 1-1z"/><path d="m6 16h2v32h-1a3 3 0 0 0 0 6h1v3a1 1 0 0 0 1 1h3v3a1 1 0 0 0 1 1h24v-2h-23v-2h19v-2h-23v-2h17a1 1 0 0 0 .707-.293l2-2a1 1 0 0 0 0-1.414l-2-2a1 1 0 0 0 -.707-.293h-17v-32h2.764l5.789 2.9a1 1 0 0 0 1.447-.9v-2h1a4 4 0 0 0 4-4v-4h9.08a7.026 7.026 0 0 0 -.08 1c0 5.554 6.285 8.761 6.553 8.9a1 1 0 0 0 .894 0c.268-.139 6.553-3.346 6.553-8.9a7.026 7.026 0 0 0 -.08-1h5.08v26h2v-23h2v26h2v-27a1 1 0 0 0 -1-1h-3v-2a1 1 0 0 0 -1-1h-6.685a6.985 6.985 0 0 0 -12.63 0h-9.685a4 4 0 0 0 -4-4h-15a4 4 0 0 0 -4 4v6a4 4 0 0 0 4 4zm0 35a1 1 0 0 1 1-1h15v2h-15a1 1 0 0 1 -1-1zm21.586 0-1 1h-2.586v-2h2.586zm13.414-47a5.006 5.006 0 0 1 5 5c0 3.57-3.7 6.08-5 6.854-1.3-.774-5-3.284-5-6.854a5.006 5.006 0 0 1 5-5zm-37 2a2 2 0 0 1 2-2h15a2 2 0 0 1 2 2v6a2 2 0 0 1 -2 2h-2a1 1 0 0 0 -1 1v1.382l-4.553-2.277a1 1 0 0 0 -.447-.105h-7a2 2 0 0 1 -2-2z"/><path d="m6 6h2v2h-2z"/><path d="m10 6h11v2h-11z"/><path d="m6 10h15v2h-15z"/></svg>